<svg width="237" height="43" viewBox="0 0 237 43" fill="none" xmlns="http://www.w3.org/2000/svg">
<path d="M12.7449 37.0234L20.6746 2.1875H25.241L27.0457 6.50781L18.5965 42H13.5926L12.7449 37.0234ZM9.65508 2.1875L16.2996 37.1875L15.1512 42H9.46367L0.823044 2.1875H9.65508ZM32.7059 36.9961L39.2684 2.1875H48.073L39.4324 42H33.7996L32.7059 36.9961ZM28.2215 2.1875L36.2605 37.2148L35.3309 42H30.3543L21.7684 6.48047L23.6551 2.1875H28.2215ZM60.7332 12.4141V42H52.1746V12.4141H60.7332ZM51.6551 4.75781C51.6551 3.51823 52.0926 2.50651 52.9676 1.72266C53.8426 0.920573 54.991 0.519531 56.4129 0.519531C57.8348 0.519531 58.9832 0.920573 59.8582 1.72266C60.7514 2.50651 61.198 3.51823 61.198 4.75781C61.198 5.97917 60.7514 6.99089 59.8582 7.79297C58.9832 8.57682 57.8348 8.96875 56.4129 8.96875C54.991 8.96875 53.8426 8.57682 52.9676 7.79297C52.0926 6.99089 51.6551 5.97917 51.6551 4.75781ZM75.4441 19.3047V42H66.9129V12.4141H74.9246L75.4441 19.3047ZM84.2762 12.1953L84.1395 20.1523C83.7749 20.0977 83.3009 20.0521 82.7176 20.0156C82.1342 19.9609 81.6329 19.9336 81.2137 19.9336C80.1199 19.9336 79.172 20.0703 78.3699 20.3438C77.5861 20.599 76.9298 20.9818 76.4012 21.4922C75.8908 22.0026 75.5079 22.6406 75.2527 23.4062C74.9975 24.1536 74.8699 25.0195 74.8699 26.0039L73.2566 25.2109C73.2566 23.2604 73.448 21.474 73.8309 19.8516C74.2137 18.2292 74.7697 16.8255 75.4988 15.6406C76.228 14.4375 77.1212 13.5078 78.1785 12.8516C79.2358 12.1953 80.4389 11.8672 81.7879 11.8672C82.2254 11.8672 82.672 11.8945 83.1277 11.9492C83.5835 12.0039 83.9663 12.0859 84.2762 12.1953ZM101.175 42.5469C98.823 42.5469 96.7176 42.1732 94.8582 41.4258C92.9988 40.6784 91.422 39.6484 90.1277 38.3359C88.8517 37.0052 87.8764 35.474 87.202 33.7422C86.5275 32.0104 86.1902 30.1602 86.1902 28.1914V27.1523C86.1902 24.9466 86.5001 22.9141 87.1199 21.0547C87.7397 19.1953 88.6421 17.582 89.827 16.2148C91.0301 14.8294 92.5066 13.763 94.2566 13.0156C96.0066 12.25 98.0027 11.8672 100.245 11.8672C102.341 11.8672 104.21 12.2135 105.85 12.9062C107.491 13.5807 108.876 14.556 110.007 15.832C111.137 17.0898 111.994 18.612 112.577 20.3984C113.179 22.1667 113.479 24.1536 113.479 26.3594V29.8594H89.6355V24.3633H105.112V23.707C105.112 22.668 104.921 21.7565 104.538 20.9727C104.173 20.1888 103.626 19.5872 102.897 19.168C102.186 18.7305 101.284 18.5117 100.19 18.5117C99.1512 18.5117 98.2853 18.7305 97.5926 19.168C96.8999 19.6055 96.3439 20.2253 95.9246 21.0273C95.5236 21.8112 95.2319 22.7318 95.0496 23.7891C94.8673 24.8281 94.7762 25.9492 94.7762 27.1523V28.1914C94.7762 29.3398 94.9311 30.388 95.241 31.3359C95.5509 32.2839 96.0066 33.0951 96.6082 33.7695C97.2098 34.444 97.9389 34.9727 98.7957 35.3555C99.6525 35.7383 100.628 35.9297 101.721 35.9297C103.07 35.9297 104.356 35.6745 105.577 35.1641C106.798 34.6354 107.856 33.8151 108.749 32.7031L112.741 37.2695C112.139 38.1445 111.292 38.9922 110.198 39.8125C109.123 40.6146 107.828 41.2708 106.315 41.7812C104.802 42.2917 103.089 42.5469 101.175 42.5469ZM117.592 5.6C117.592 4.816 117.853 4.16267 118.376 3.64C118.936 3.08 119.608 2.8 120.392 2.8C121.138 2.8 121.773 3.04266 122.296 3.528C122.818 4.01333 123.117 4.62933 123.192 5.376C123.266 4.62933 123.565 4.01333 124.088 3.528C124.61 3.04266 125.245 2.8 125.992 2.8C126.776 2.8 127.429 3.08 127.952 3.64C128.512 4.16267 128.792 4.816 128.792 5.6C128.792 4.816 129.053 4.16267 129.576 3.64C130.136 3.08 130.808 2.8 131.592 2.8C132.338 2.8 132.973 3.04266 133.496 3.528C134.018 4.01333 134.317 4.62933 134.392 5.376C134.466 4.62933 134.765 4.01333 135.288 3.528C135.81 3.04266 136.445 2.8 137.192 2.8C137.976 2.8 138.629 3.08 139.152 3.64C139.712 4.16267 139.992 4.816 139.992 5.6C139.992 6.384 139.712 7.056 139.152 7.616C138.629 8.13867 137.976 8.4 137.192 8.4C136.445 8.4 135.81 8.15733 135.288 7.672C134.765 7.224 134.466 6.62667 134.392 5.88C134.28 6.62667 133.981 7.224 133.496 7.672C132.973 8.15733 132.338 8.4 131.592 8.4C130.845 8.4 130.21 8.15733 129.688 7.672C129.165 7.224 128.866 6.62667 128.792 5.88C128.68 6.62667 128.381 7.224 127.896 7.672C127.373 8.15733 126.738 8.4 125.992 8.4C125.245 8.4 124.61 8.15733 124.088 7.672C123.565 7.224 123.266 6.62667 123.192 5.88C123.08 6.58933 122.781 7.168 122.296 7.616C121.848 8.064 121.306 8.32533 120.672 8.4C121.381 8.512 121.978 8.81067 122.464 9.296C122.949 9.81866 123.192 10.4533 123.192 11.2C123.192 11.9467 122.949 12.5813 122.464 13.104C121.978 13.6267 121.381 13.9253 120.672 14C121.381 14.112 121.978 14.4107 122.464 14.896C122.949 15.4187 123.192 16.0533 123.192 16.8C123.192 17.5467 122.949 18.1813 122.464 18.704C121.978 19.2267 121.381 19.5253 120.672 19.6C121.306 19.712 121.866 19.992 122.352 20.44C122.837 20.9253 123.117 21.504 123.192 22.176C123.266 21.4293 123.565 20.8133 124.088 20.328C124.61 19.8427 125.245 19.6 125.992 19.6C126.776 19.6 127.429 19.88 127.952 20.44C128.512 20.9627 128.792 21.616 128.792 22.4C128.792 21.616 129.053 20.9627 129.576 20.44C130.136 19.88 130.808 19.6 131.592 19.6C132.338 19.6 132.973 19.8427 133.496 20.328C133.981 20.8133 134.28 21.4107 134.392 22.12C134.466 21.4107 134.765 20.8133 135.288 20.328C135.81 19.8427 136.445 19.6 137.192 19.6C137.976 19.6 138.629 19.88 139.152 20.44C139.712 20.9627 139.992 21.616 139.992 22.4C139.992 23.184 139.712 23.856 139.152 24.416C138.629 24.9387 137.976 25.2 137.192 25.2C136.445 25.2 135.81 24.9573 135.288 24.472C134.765 24.024 134.466 23.4267 134.392 22.68C134.28 23.4267 133.981 24.024 133.496 24.472C132.973 24.9573 132.338 25.2 131.592 25.2C130.845 25.2 130.21 24.9573 129.688 24.472C129.165 24.024 128.866 23.4267 128.792 22.68C128.68 23.4267 128.381 24.024 127.896 24.472C127.373 24.9573 126.738 25.2 125.992 25.2C125.245 25.2 124.61 24.9573 124.088 24.472C123.565 24.024 123.266 23.4267 123.192 22.68C123.08 23.3893 122.781 23.968 122.296 24.416C121.848 24.864 121.306 25.1253 120.672 25.2C121.381 25.312 121.978 25.6107 122.464 26.096C122.949 26.6187 123.192 27.2533 123.192 28C123.192 28.7467 122.949 29.3813 122.464 29.904C121.978 30.4267 121.381 30.7253 120.672 30.8C121.381 30.912 121.978 31.2107 122.464 31.696C122.949 32.2187 123.192 32.8533 123.192 33.6C123.192 34.3467 122.949 34.9813 122.464 35.504C121.978 36.0267 121.381 36.3253 120.672 36.4C121.381 36.512 121.978 36.8107 122.464 37.296C122.874 37.7813 123.117 38.3413 123.192 38.976C123.229 38.304 123.49 37.7253 123.976 37.24C124.536 36.68 125.208 36.4 125.992 36.4C126.738 36.4 127.373 36.6427 127.896 37.128C128.418 37.6133 128.717 38.2293 128.792 38.976C128.866 38.2293 129.165 37.6133 129.688 37.128C130.21 36.6427 130.845 36.4 131.592 36.4C132.338 36.4 132.973 36.6427 133.496 37.128C134.018 37.6133 134.317 38.2293 134.392 38.976C134.466 38.2293 134.765 37.6133 135.288 37.128C135.81 36.6427 136.445 36.4 137.192 36.4C137.976 36.4 138.629 36.68 139.152 37.24C139.712 37.7627 139.992 38.416 139.992 39.2C139.992 39.984 139.712 40.656 139.152 41.216C138.629 41.7387 137.976 42 137.192 42C136.445 42 135.81 41.7573 135.288 41.272C134.765 40.824 134.466 40.2267 134.392 39.48C134.28 40.2267 133.981 40.824 133.496 41.272C132.973 41.7573 132.338 42 131.592 42C130.845 42 130.21 41.7573 129.688 41.272C129.165 40.824 128.866 40.2267 128.792 39.48C128.68 40.2267 128.381 40.824 127.896 41.272C127.373 41.7573 126.738 42 125.992 42C125.245 42 124.61 41.7573 124.088 41.272C123.565 40.824 123.266 40.2267 123.192 39.48C123.08 40.2267 122.781 40.824 122.296 41.272C121.773 41.7573 121.138 42 120.392 42C119.608 42 118.936 41.7387 118.376 41.216C117.853 40.656 117.592 39.984 117.592 39.2C117.592 38.4533 117.834 37.8187 118.32 37.296C118.768 36.8107 119.365 36.512 120.112 36.4C119.365 36.3253 118.768 36.0267 118.32 35.504C117.834 34.9813 117.592 34.3467 117.592 33.6C117.592 32.8533 117.834 32.2187 118.32 31.696C118.768 31.2107 119.365 30.912 120.112 30.8C119.365 30.7253 118.768 30.4267 118.32 29.904C117.834 29.3813 117.592 28.7467 117.592 28C117.592 27.2533 117.834 26.6187 118.32 26.096C118.768 25.6107 119.365 25.312 120.112 25.2C119.365 25.1253 118.768 24.8267 118.32 24.304C117.834 23.7813 117.592 23.1467 117.592 22.4C117.592 21.6533 117.834 21.0187 118.32 20.496C118.768 20.0107 119.365 19.712 120.112 19.6C119.365 19.5253 118.768 19.2267 118.32 18.704C117.834 18.1813 117.592 17.5467 117.592 16.8C117.592 16.0533 117.834 15.4187 118.32 14.896C118.768 14.4107 119.365 14.112 120.112 14C119.365 13.9253 118.768 13.6267 118.32 13.104C117.834 12.5813 117.592 11.9467 117.592 11.2C117.592 10.4533 117.834 9.81866 118.32 9.296C118.768 8.81067 119.365 8.512 120.112 8.4C119.365 8.32533 118.768 8.02666 118.32 7.504C117.834 6.98133 117.592 6.34666 117.592 5.6ZM139.992 11.2C139.992 10.416 140.253 9.76266 140.776 9.24C141.336 8.68 142.008 8.4 142.792 8.4C143.576 8.4 144.229 8.68 144.752 9.24C145.312 9.76266 145.592 10.416 145.592 11.2C145.592 11.9467 145.349 12.5813 144.864 13.104C144.378 13.6267 143.781 13.9253 143.072 14C143.781 14.112 144.378 14.4107 144.864 14.896C145.349 15.4187 145.592 16.0533 145.592 16.8C145.592 17.584 145.312 18.256 144.752 18.816C144.229 19.3387 143.576 19.6 142.792 19.6C142.008 19.6 141.336 19.3387 140.776 18.816C140.253 18.256 139.992 17.584 139.992 16.8C139.992 16.0533 140.234 15.4187 140.72 14.896C141.168 14.4107 141.765 14.112 142.512 14C141.765 13.9253 141.168 13.6267 140.72 13.104C140.234 12.5813 139.992 11.9467 139.992 11.2ZM139.992 33.6C139.992 32.8533 140.234 32.2187 140.72 31.696C141.168 31.2107 141.765 30.912 142.512 30.8C141.765 30.7253 141.168 30.4267 140.72 29.904C140.234 29.3813 139.992 28.7467 139.992 28C139.992 27.216 140.253 26.5627 140.776 26.04C141.336 25.48 142.008 25.2 142.792 25.2C143.576 25.2 144.229 25.48 144.752 26.04C145.312 26.5627 145.592 27.216 145.592 28C145.592 28.7467 145.349 29.3813 144.864 29.904C144.378 30.4267 143.781 30.7253 143.072 30.8C143.781 30.912 144.378 31.2107 144.864 31.696C145.349 32.2187 145.592 32.8533 145.592 33.6C145.592 34.384 145.312 35.056 144.752 35.616C144.229 36.1387 143.576 36.4 142.792 36.4C142.008 36.4 141.336 36.1387 140.776 35.616C140.253 35.056 139.992 34.384 139.992 33.6ZM156.77 28C156.77 27.2533 157.013 26.6187 157.498 26.096C157.946 25.6107 158.543 25.312 159.29 25.2C158.543 25.1253 157.946 24.8267 157.498 24.304C157.013 23.7813 156.77 23.1467 156.77 22.4C156.77 21.6533 157.013 21.0187 157.498 20.496C157.946 20.0107 158.543 19.712 159.29 19.6C158.581 19.5253 158.002 19.264 157.554 18.816C157.106 18.368 156.845 17.7893 156.77 17.08C156.658 17.8267 156.359 18.424 155.874 18.872C155.351 19.3573 154.717 19.6 153.97 19.6C153.186 19.6 152.514 19.3387 151.954 18.816C151.431 18.256 151.17 17.584 151.17 16.8C151.17 16.016 151.431 15.3627 151.954 14.84C152.514 14.28 153.186 14 153.97 14C154.717 14 155.351 14.2427 155.874 14.728C156.397 15.2133 156.695 15.8293 156.77 16.576C156.845 15.8293 157.143 15.2133 157.666 14.728C158.189 14.2427 158.823 14 159.57 14C160.354 14 161.007 14.28 161.53 14.84C162.09 15.3627 162.37 16.016 162.37 16.8C162.37 17.5467 162.127 18.1813 161.642 18.704C161.157 19.2267 160.559 19.5253 159.85 19.6C160.559 19.712 161.157 20.0107 161.642 20.496C162.127 21.0187 162.37 21.6533 162.37 22.4C162.37 23.1467 162.127 23.7813 161.642 24.304C161.157 24.8267 160.559 25.1253 159.85 25.2C160.559 25.312 161.157 25.6107 161.642 26.096C162.127 26.6187 162.37 27.2533 162.37 28C162.37 28.7467 162.127 29.3813 161.642 29.904C161.157 30.4267 160.559 30.7253 159.85 30.8C160.559 30.912 161.157 31.2107 161.642 31.696C162.127 32.2187 162.37 32.8533 162.37 33.6C162.37 34.3467 162.127 34.9813 161.642 35.504C161.157 36.0267 160.559 36.3253 159.85 36.4C160.559 36.512 161.157 36.8107 161.642 37.296C162.127 37.8187 162.37 38.4533 162.37 39.2C162.37 38.416 162.631 37.7627 163.154 37.24C163.714 36.68 164.386 36.4 165.17 36.4C165.954 36.4 166.607 36.68 167.13 37.24C167.69 37.7627 167.97 38.416 167.97 39.2C167.97 39.984 167.69 40.656 167.13 41.216C166.607 41.7387 165.954 42 165.17 42C164.423 42 163.789 41.7573 163.266 41.272C162.743 40.824 162.445 40.2267 162.37 39.48C162.258 40.2267 161.959 40.824 161.474 41.272C160.951 41.7573 160.317 42 159.57 42C158.823 42 158.189 41.7573 157.666 41.272C157.143 40.824 156.845 40.2267 156.77 39.48C156.658 40.2267 156.359 40.824 155.874 41.272C155.351 41.7573 154.717 42 153.97 42C153.186 42 152.514 41.7387 151.954 41.216C151.431 40.656 151.17 39.984 151.17 39.2C151.17 38.416 151.431 37.7627 151.954 37.24C152.514 36.68 153.186 36.4 153.97 36.4C154.754 36.4 155.407 36.68 155.93 37.24C156.415 37.7253 156.695 38.304 156.77 38.976C156.807 38.3413 157.05 37.7813 157.498 37.296C157.946 36.8107 158.543 36.512 159.29 36.4C158.543 36.3253 157.946 36.0267 157.498 35.504C157.013 34.9813 156.77 34.3467 156.77 33.6C156.77 32.8533 157.013 32.2187 157.498 31.696C157.946 31.2107 158.543 30.912 159.29 30.8C158.543 30.7253 157.946 30.4267 157.498 29.904C157.013 29.3813 156.77 28.7467 156.77 28ZM156.77 5.6C156.77 4.816 157.031 4.16267 157.554 3.64C158.114 3.08 158.786 2.8 159.57 2.8C160.354 2.8 161.007 3.08 161.53 3.64C162.09 4.16267 162.37 4.816 162.37 5.6C162.37 6.384 162.09 7.056 161.53 7.616C161.007 8.13867 160.354 8.4 159.57 8.4C158.786 8.4 158.114 8.13867 157.554 7.616C157.031 7.056 156.77 6.384 156.77 5.6ZM173.592 11.2C173.592 10.416 173.853 9.76266 174.376 9.24C174.936 8.68 175.608 8.4 176.392 8.4C177.176 8.4 177.829 8.68 178.352 9.24C178.912 9.76266 179.192 10.416 179.192 11.2C179.192 11.9467 178.949 12.5813 178.464 13.104C177.978 13.6267 177.381 13.9253 176.672 14C177.381 14.112 177.978 14.4107 178.464 14.896C178.874 15.3813 179.117 15.9413 179.192 16.576C179.229 15.904 179.49 15.3253 179.976 14.84C180.536 14.28 181.208 14 181.992 14C182.776 14 183.429 14.28 183.952 14.84C184.512 15.3627 184.792 16.016 184.792 16.8C184.792 17.584 184.512 18.256 183.952 18.816C183.429 19.3387 182.776 19.6 181.992 19.6C181.245 19.6 180.61 19.3573 180.088 18.872C179.565 18.424 179.266 17.8267 179.192 17.08C179.08 17.7893 178.781 18.368 178.296 18.816C177.848 19.264 177.306 19.5253 176.672 19.6C177.381 19.712 177.978 20.0107 178.464 20.496C178.949 21.0187 179.192 21.6533 179.192 22.4C179.192 23.1467 178.949 23.7813 178.464 24.304C177.978 24.8267 177.381 25.1253 176.672 25.2C177.381 25.312 177.978 25.6107 178.464 26.096C178.949 26.6187 179.192 27.2533 179.192 28C179.192 28.7467 178.949 29.3813 178.464 29.904C177.978 30.4267 177.381 30.7253 176.672 30.8C177.381 30.912 177.978 31.2107 178.464 31.696C178.949 32.2187 179.192 32.8533 179.192 33.6C179.192 34.384 178.912 35.056 178.352 35.616C177.829 36.1387 177.176 36.4 176.392 36.4C175.608 36.4 174.936 36.1387 174.376 35.616C173.853 35.056 173.592 34.384 173.592 33.6C173.592 32.8533 173.834 32.2187 174.32 31.696C174.768 31.2107 175.365 30.912 176.112 30.8C175.365 30.7253 174.768 30.4267 174.32 29.904C173.834 29.3813 173.592 28.7467 173.592 28C173.592 27.2533 173.834 26.6187 174.32 26.096C174.768 25.6107 175.365 25.312 176.112 25.2C175.365 25.1253 174.768 24.8267 174.32 24.304C173.834 23.7813 173.592 23.1467 173.592 22.4C173.592 21.6533 173.834 21.0187 174.32 20.496C174.768 20.0107 175.365 19.712 176.112 19.6C175.402 19.5253 174.824 19.264 174.376 18.816C173.928 18.368 173.666 17.7893 173.592 17.08C173.48 17.8267 173.181 18.424 172.696 18.872C172.173 19.3573 171.538 19.6 170.792 19.6C170.008 19.6 169.336 19.3387 168.776 18.816C168.253 18.256 167.992 17.584 167.992 16.8C167.992 16.016 168.253 15.3627 168.776 14.84C169.336 14.28 170.008 14 170.792 14C171.576 14 172.229 14.28 172.752 14.84C173.237 15.3253 173.517 15.904 173.592 16.576C173.629 15.9413 173.872 15.3813 174.32 14.896C174.768 14.4107 175.365 14.112 176.112 14C175.365 13.9253 174.768 13.6267 174.32 13.104C173.834 12.5813 173.592 11.9467 173.592 11.2ZM179.192 39.2C179.192 38.416 179.453 37.7627 179.976 37.24C180.536 36.68 181.208 36.4 181.992 36.4C182.776 36.4 183.429 36.68 183.952 37.24C184.512 37.7627 184.792 38.416 184.792 39.2C184.792 38.416 185.053 37.7627 185.576 37.24C186.136 36.68 186.808 36.4 187.592 36.4C188.376 36.4 189.029 36.68 189.552 37.24C190.112 37.7627 190.392 38.416 190.392 39.2C190.392 39.984 190.112 40.656 189.552 41.216C189.029 41.7387 188.376 42 187.592 42C186.845 42 186.21 41.7573 185.688 41.272C185.165 40.824 184.866 40.2267 184.792 39.48C184.68 40.2267 184.381 40.824 183.896 41.272C183.373 41.7573 182.738 42 181.992 42C181.208 42 180.536 41.7387 179.976 41.216C179.453 40.656 179.192 39.984 179.192 39.2ZM190.392 33.6C190.392 32.816 190.653 32.1627 191.176 31.64C191.736 31.08 192.408 30.8 193.192 30.8C193.976 30.8 194.629 31.08 195.152 31.64C195.712 32.1627 195.992 32.816 195.992 33.6C195.992 34.384 195.712 35.056 195.152 35.616C194.629 36.1387 193.976 36.4 193.192 36.4C192.408 36.4 191.736 36.1387 191.176 35.616C190.653 35.056 190.392 34.384 190.392 33.6ZM196.97 39C196.97 38.72 197.063 38.4867 197.25 38.3C197.45 38.1 197.69 38 197.97 38C198.237 38 198.463 38.0867 198.65 38.26C198.837 38.4333 198.943 38.6533 198.97 38.92C198.997 38.6533 199.103 38.4333 199.29 38.26C199.477 38.0867 199.703 38 199.97 38C200.25 38 200.483 38.1 200.67 38.3C200.87 38.4867 200.97 38.72 200.97 39C200.97 39.2667 200.883 39.4933 200.71 39.68C200.537 39.8667 200.323 39.9733 200.07 40C200.323 40.04 200.537 40.1467 200.71 40.32C200.883 40.5067 200.97 40.7333 200.97 41C200.97 41.28 200.87 41.52 200.67 41.72C200.483 41.9067 200.25 42 199.97 42C199.703 42 199.477 41.9133 199.29 41.74C199.103 41.58 198.997 41.3667 198.97 41.1C198.93 41.3667 198.823 41.58 198.65 41.74C198.463 41.9133 198.237 42 197.97 42C197.69 42 197.45 41.9067 197.25 41.72C197.063 41.52 196.97 41.28 196.97 41C196.97 40.7333 197.057 40.5067 197.23 40.32C197.39 40.1467 197.603 40.04 197.87 40C197.603 39.9733 197.39 39.8667 197.23 39.68C197.057 39.4933 196.97 39.2667 196.97 39ZM198.97 41C198.97 40.7333 199.057 40.5067 199.23 40.32C199.39 40.1467 199.603 40.04 199.87 40C199.617 39.9733 199.41 39.88 199.25 39.72C199.09 39.56 198.997 39.3533 198.97 39.1C198.93 39.3533 198.823 39.56 198.65 39.72C198.49 39.88 198.297 39.9733 198.07 40C198.323 40.04 198.537 40.1467 198.71 40.32C198.883 40.5067 198.97 40.7333 198.97 41ZM202.966 37C202.966 36.7333 203.053 36.5067 203.226 36.32C203.386 36.1467 203.599 36.04 203.866 36C203.599 35.9733 203.386 35.8667 203.226 35.68C203.053 35.4933 202.966 35.2667 202.966 35C202.966 34.7333 203.053 34.5067 203.226 34.32C203.386 34.1467 203.599 34.04 203.866 34C203.599 33.9733 203.386 33.8667 203.226 33.68C203.053 33.4933 202.966 33.2667 202.966 33C202.966 32.72 203.059 32.4867 203.246 32.3C203.446 32.1 203.686 32 203.966 32C204.246 32 204.479 32.1 204.666 32.3C204.866 32.4867 204.966 32.72 204.966 33C204.966 33.2667 204.879 33.4933 204.706 33.68C204.533 33.8667 204.319 33.9733 204.066 34C204.319 34.04 204.533 34.1467 204.706 34.32C204.853 34.4933 204.939 34.6933 204.966 34.92C204.979 34.68 205.073 34.4733 205.246 34.3C205.446 34.1 205.686 34 205.966 34C206.246 34 206.479 34.1 206.666 34.3C206.866 34.4867 206.966 34.72 206.966 35C206.966 35.28 206.866 35.52 206.666 35.72C206.479 35.9067 206.246 36 205.966 36C205.699 36 205.473 35.9133 205.286 35.74C205.099 35.58 204.993 35.3667 204.966 35.1C204.926 35.3533 204.819 35.56 204.646 35.72C204.486 35.88 204.293 35.9733 204.066 36C204.319 36.04 204.533 36.1467 204.706 36.32C204.879 36.5067 204.966 36.7333 204.966 37C204.966 37.2667 204.879 37.4933 204.706 37.68C204.533 37.8667 204.319 37.9733 204.066 38C204.319 38.04 204.533 38.1467 204.706 38.32C204.879 38.5067 204.966 38.7333 204.966 39C204.966 39.2667 204.879 39.4933 204.706 39.68C204.533 39.8667 204.319 39.9733 204.066 40C204.319 40.04 204.533 40.1467 204.706 40.32C204.879 40.5067 204.966 40.7333 204.966 41C204.966 41.28 204.866 41.52 204.666 41.72C204.479 41.9067 204.246 42 203.966 42C203.686 42 203.446 41.9067 203.246 41.72C203.059 41.52 202.966 41.28 202.966 41C202.966 40.7333 203.053 40.5067 203.226 40.32C203.386 40.1467 203.599 40.04 203.866 40C203.599 39.9733 203.386 39.8667 203.226 39.68C203.053 39.4933 202.966 39.2667 202.966 39C202.966 38.7333 203.053 38.5067 203.226 38.32C203.386 38.1467 203.599 38.04 203.866 38C203.599 37.9733 203.386 37.8667 203.226 37.68C203.053 37.4933 202.966 37.2667 202.966 37ZM210.966 37C210.966 36.7333 211.053 36.5067 211.226 36.32C211.386 36.1467 211.599 36.04 211.866 36C211.599 35.9733 211.386 35.8667 211.226 35.68C211.053 35.4933 210.966 35.2667 210.966 35C210.966 34.72 211.059 34.4867 211.246 34.3C211.446 34.1 211.686 34 211.966 34C212.246 34 212.479 34.1 212.666 34.3C212.866 34.4867 212.966 34.72 212.966 35C212.966 35.2667 212.879 35.4933 212.706 35.68C212.533 35.8667 212.319 35.9733 212.066 36C212.319 36.04 212.533 36.1467 212.706 36.32C212.879 36.5067 212.966 36.7333 212.966 37C212.966 37.2667 212.879 37.4933 212.706 37.68C212.533 37.8667 212.319 37.9733 212.066 38C212.319 38.04 212.533 38.1467 212.706 38.32C212.879 38.5067 212.966 38.7333 212.966 39C212.966 39.2667 212.879 39.4933 212.706 39.68C212.533 39.8667 212.319 39.9733 212.066 40C212.319 40.04 212.533 40.1467 212.706 40.32C212.879 40.5067 212.966 40.7333 212.966 41C212.966 41.28 212.866 41.52 212.666 41.72C212.479 41.9067 212.246 42 211.966 42C211.686 42 211.446 41.9067 211.246 41.72C211.059 41.52 210.966 41.28 210.966 41C210.966 40.7333 211.053 40.5067 211.226 40.32C211.386 40.1467 211.599 40.04 211.866 40C211.599 39.9733 211.386 39.8667 211.226 39.68C211.053 39.4933 210.966 39.2667 210.966 39C210.966 38.7333 211.053 38.5067 211.226 38.32C211.386 38.1467 211.599 38.04 211.866 38C211.599 37.9733 211.386 37.8667 211.226 37.68C211.053 37.4933 210.966 37.2667 210.966 37ZM206.966 33C206.966 32.72 207.059 32.4867 207.246 32.3C207.446 32.1 207.686 32 207.966 32C208.246 32 208.479 32.1 208.666 32.3C208.839 32.4733 208.939 32.68 208.966 32.92C208.979 32.68 209.073 32.4733 209.246 32.3C209.446 32.1 209.686 32 209.966 32C210.246 32 210.479 32.1 210.666 32.3C210.866 32.4867 210.966 32.72 210.966 33C210.966 33.28 210.866 33.52 210.666 33.72C210.479 33.9067 210.246 34 209.966 34C209.699 34 209.473 33.9133 209.286 33.74C209.099 33.58 208.993 33.3667 208.966 33.1C208.926 33.3667 208.819 33.58 208.646 33.74C208.459 33.9133 208.233 34 207.966 34C207.686 34 207.446 33.9067 207.246 33.72C207.059 33.52 206.966 33.28 206.966 33ZM222.958 35C222.958 34.72 223.052 34.4867 223.238 34.3C223.438 34.1 223.678 34 223.958 34C224.238 34 224.472 34.1 224.658 34.3C224.858 34.4867 224.958 34.72 224.958 35C224.958 35.2667 224.872 35.4933 224.698 35.68C224.525 35.8667 224.312 35.9733 224.058 36C224.312 36.04 224.525 36.1467 224.698 36.32C224.872 36.5067 224.958 36.7333 224.958 37C224.958 37.28 224.858 37.52 224.658 37.72C224.472 37.9067 224.238 38 223.958 38C223.692 38 223.465 37.9133 223.278 37.74C223.092 37.58 222.985 37.3667 222.958 37.1C222.918 37.3667 222.812 37.58 222.638 37.74C222.452 37.9133 222.225 38 221.958 38C221.692 38 221.465 37.9133 221.278 37.74C221.092 37.58 220.985 37.3667 220.958 37.1C220.918 37.3667 220.812 37.58 220.638 37.74C220.452 37.9133 220.225 38 219.958 38C219.692 38 219.465 37.9133 219.278 37.74C219.092 37.58 218.985 37.3667 218.958 37.1C218.918 37.3667 218.812 37.58 218.638 37.74C218.452 37.9133 218.225 38 217.958 38C217.692 38 217.465 37.9133 217.278 37.74C217.092 37.58 216.985 37.3667 216.958 37.1C216.918 37.3533 216.812 37.56 216.638 37.72C216.478 37.88 216.285 37.9733 216.058 38C216.312 38.04 216.525 38.1467 216.698 38.32C216.872 38.5067 216.958 38.7333 216.958 39C216.958 39.28 216.858 39.52 216.658 39.72C216.472 39.9067 216.238 40 215.958 40C215.678 40 215.438 39.9067 215.238 39.72C215.052 39.52 214.958 39.28 214.958 39C214.958 38.7333 215.045 38.5067 215.218 38.32C215.378 38.1467 215.592 38.04 215.858 38C215.592 37.9733 215.378 37.8667 215.218 37.68C215.045 37.4933 214.958 37.2667 214.958 37C214.958 36.7333 215.045 36.5067 215.218 36.32C215.378 36.1467 215.592 36.04 215.858 36C215.592 35.9733 215.378 35.8667 215.218 35.68C215.045 35.4933 214.958 35.2667 214.958 35C214.958 34.72 215.052 34.4867 215.238 34.3C215.438 34.1 215.678 34 215.958 34C216.238 34 216.472 34.1 216.658 34.3C216.858 34.4867 216.958 34.72 216.958 35C216.958 35.2667 216.872 35.4933 216.698 35.68C216.525 35.8667 216.312 35.9733 216.058 36C216.312 36.04 216.525 36.1467 216.698 36.32C216.845 36.4933 216.932 36.6933 216.958 36.92C216.972 36.68 217.065 36.4733 217.238 36.3C217.438 36.1 217.678 36 217.958 36C218.238 36 218.472 36.1 218.658 36.3C218.858 36.4867 218.958 36.72 218.958 37C218.958 36.72 219.052 36.4867 219.238 36.3C219.438 36.1 219.678 36 219.958 36C220.238 36 220.472 36.1 220.658 36.3C220.858 36.4867 220.958 36.72 220.958 37C220.958 36.72 221.052 36.4867 221.238 36.3C221.438 36.1 221.678 36 221.958 36C222.238 36 222.472 36.1 222.658 36.3C222.832 36.4733 222.932 36.68 222.958 36.92C222.972 36.6933 223.058 36.4933 223.218 36.32C223.378 36.1467 223.592 36.04 223.858 36C223.592 35.9733 223.378 35.8667 223.218 35.68C223.045 35.4933 222.958 35.2667 222.958 35ZM216.958 33C216.958 32.72 217.052 32.4867 217.238 32.3C217.438 32.1 217.678 32 217.958 32C218.238 32 218.472 32.1 218.658 32.3C218.832 32.4733 218.932 32.68 218.958 32.92C218.972 32.68 219.065 32.4733 219.238 32.3C219.438 32.1 219.678 32 219.958 32C220.238 32 220.472 32.1 220.658 32.3C220.832 32.4733 220.932 32.68 220.958 32.92C220.972 32.68 221.065 32.4733 221.238 32.3C221.438 32.1 221.678 32 221.958 32C222.238 32 222.472 32.1 222.658 32.3C222.858 32.4867 222.958 32.72 222.958 33C222.958 33.28 222.858 33.52 222.658 33.72C222.472 33.9067 222.238 34 221.958 34C221.692 34 221.465 33.9133 221.278 33.74C221.092 33.58 220.985 33.3667 220.958 33.1C220.918 33.3667 220.812 33.58 220.638 33.74C220.452 33.9133 220.225 34 219.958 34C219.692 34 219.465 33.9133 219.278 33.74C219.092 33.58 218.985 33.3667 218.958 33.1C218.918 33.3667 218.812 33.58 218.638 33.74C218.452 33.9133 218.225 34 217.958 34C217.678 34 217.438 33.9067 217.238 33.72C217.052 33.52 216.958 33.28 216.958 33ZM216.958 41C216.958 40.72 217.052 40.4867 217.238 40.3C217.438 40.1 217.678 40 217.958 40C218.225 40 218.452 40.0867 218.638 40.26C218.825 40.4333 218.932 40.6533 218.958 40.92C218.985 40.6533 219.092 40.4333 219.278 40.26C219.465 40.0867 219.692 40 219.958 40C220.238 40 220.472 40.1 220.658 40.3C220.832 40.4733 220.932 40.68 220.958 40.92C220.972 40.68 221.065 40.4733 221.238 40.3C221.438 40.1 221.678 40 221.958 40C222.238 40 222.472 40.1 222.658 40.3C222.858 40.4867 222.958 40.72 222.958 41C222.958 41.28 222.858 41.52 222.658 41.72C222.472 41.9067 222.238 42 221.958 42C221.692 42 221.465 41.9133 221.278 41.74C221.092 41.58 220.985 41.3667 220.958 41.1C220.918 41.3667 220.812 41.58 220.638 41.74C220.452 41.9133 220.225 42 219.958 42C219.692 42 219.465 41.9133 219.278 41.74C219.092 41.58 218.985 41.3667 218.958 41.1C218.918 41.3667 218.812 41.58 218.638 41.74C218.452 41.9133 218.225 42 217.958 42C217.678 42 217.438 41.9067 217.238 41.72C217.052 41.52 216.958 41.28 216.958 41ZM228.95 31C228.95 30.72 229.044 30.4867 229.23 30.3C229.43 30.1 229.67 30 229.95 30C230.23 30 230.464 30.1 230.65 30.3C230.85 30.4867 230.95 30.72 230.95 31C230.95 31.2667 230.864 31.4933 230.69 31.68C230.517 31.8667 230.304 31.9733 230.05 32C230.304 32.04 230.517 32.1467 230.69 32.32C230.837 32.4933 230.924 32.6933 230.95 32.92C230.964 32.68 231.057 32.4733 231.23 32.3C231.43 32.1 231.67 32 231.95 32C232.23 32 232.464 32.1 232.65 32.3C232.85 32.4867 232.95 32.72 232.95 33C232.95 33.28 232.85 33.52 232.65 33.72C232.464 33.9067 232.23 34 231.95 34C231.684 34 231.457 33.9133 231.27 33.74C231.084 33.58 230.977 33.3667 230.95 33.1C230.91 33.3533 230.804 33.56 230.63 33.72C230.47 33.88 230.277 33.9733 230.05 34C230.304 34.04 230.517 34.1467 230.69 34.32C230.864 34.5067 230.95 34.7333 230.95 35C230.95 35.2667 230.864 35.4933 230.69 35.68C230.517 35.8667 230.304 35.9733 230.05 36C230.304 36.04 230.517 36.1467 230.69 36.32C230.864 36.5067 230.95 36.7333 230.95 37C230.95 37.2667 230.864 37.4933 230.69 37.68C230.517 37.8667 230.304 37.9733 230.05 38C230.304 38.04 230.517 38.1467 230.69 38.32C230.864 38.5067 230.95 38.7333 230.95 39C230.95 39.28 230.85 39.52 230.65 39.72C230.464 39.9067 230.23 40 229.95 40C229.67 40 229.43 39.9067 229.23 39.72C229.044 39.52 228.95 39.28 228.95 39C228.95 38.7333 229.037 38.5067 229.21 38.32C229.37 38.1467 229.584 38.04 229.85 38C229.584 37.9733 229.37 37.8667 229.21 37.68C229.037 37.4933 228.95 37.2667 228.95 37C228.95 36.7333 229.037 36.5067 229.21 36.32C229.37 36.1467 229.584 36.04 229.85 36C229.584 35.9733 229.37 35.8667 229.21 35.68C229.037 35.4933 228.95 35.2667 228.95 35C228.95 34.7333 229.037 34.5067 229.21 34.32C229.37 34.1467 229.584 34.04 229.85 34C229.597 33.9733 229.39 33.88 229.23 33.72C229.07 33.56 228.977 33.3533 228.95 33.1C228.91 33.3667 228.804 33.58 228.63 33.74C228.444 33.9133 228.217 34 227.95 34C227.67 34 227.43 33.9067 227.23 33.72C227.044 33.52 226.95 33.28 226.95 33C226.95 32.72 227.044 32.4867 227.23 32.3C227.43 32.1 227.67 32 227.95 32C228.23 32 228.464 32.1 228.65 32.3C228.824 32.4733 228.924 32.68 228.95 32.92C228.964 32.6933 229.05 32.4933 229.21 32.32C229.37 32.1467 229.584 32.04 229.85 32C229.584 31.9733 229.37 31.8667 229.21 31.68C229.037 31.4933 228.95 31.2667 228.95 31ZM230.95 41C230.95 40.72 231.044 40.4867 231.23 40.3C231.43 40.1 231.67 40 231.95 40C232.23 40 232.464 40.1 232.65 40.3C232.85 40.4867 232.95 40.72 232.95 41C232.95 40.72 233.044 40.4867 233.23 40.3C233.43 40.1 233.67 40 233.95 40C234.23 40 234.464 40.1 234.65 40.3C234.85 40.4867 234.95 40.72 234.95 41C234.95 41.28 234.85 41.52 234.65 41.72C234.464 41.9067 234.23 42 233.95 42C233.684 42 233.457 41.9133 233.27 41.74C233.084 41.58 232.977 41.3667 232.95 41.1C232.91 41.3667 232.804 41.58 232.63 41.74C232.444 41.9133 232.217 42 231.95 42C231.67 42 231.43 41.9067 231.23 41.72C231.044 41.52 230.95 41.28 230.95 41ZM234.95 39C234.95 38.72 235.044 38.4867 235.23 38.3C235.43 38.1 235.67 38 235.95 38C236.23 38 236.464 38.1 236.65 38.3C236.85 38.4867 236.95 38.72 236.95 39C236.95 39.28 236.85 39.52 236.65 39.72C236.464 39.9067 236.23 40 235.95 40C235.67 40 235.43 39.9067 235.23 39.72C235.044 39.52 234.95 39.28 234.95 39Z" fill="#141414"/>
</svg>
